<?xml version="1.0" standalone="no"?>
<!DOCTYPE svg PUBLIC "-//W3C//DTD SVG 20010904//EN"
 "http://www.w3.org/TR/2001/REC-SVG-20010904/DTD/svg10.dtd">
<svg version="1.0" xmlns="http://www.w3.org/2000/svg"
 width="50.000000pt" height="150.000000pt" viewBox="0 0 900.000000 900.000000"
 preserveAspectRatio="xMidYMid meet">
<metadata>
Created by potrace 1.10, written by Peter Selinger 2001-2011
</metadata>
<g transform="translate(0.000000,150.000000) scale(0.100000,-0.100000)"
fill="#FFE200" stroke="none">
<path d="M719 1360 c-9 -5 -22 -24 -30 -42 -7 -18 -23 -46 -35 -63 -43 -60
-46 -72 -23 -94 20 -18 20 -20 4 -44 -9 -14 -15 -38 -13 -54 2 -22 8 -28 28
-28 28 0 39 32 21 62 -9 15 -10 11 -11 -19 0 -21 -4 -38 -10 -38 -5 0 -10 18
-10 39 0 58 21 58 70 0 25 -30 49 -49 62 -49 30 0 128 100 128 131 0 17 -21
45 -65 89 -35 36 -65 72 -65 81 0 15 -19 39 -29 39 -4 0 -13 -5 -22 -10z m86
-99 c-3 -2 13 -24 36 -47 48 -49 47 -66 -9 -115 -20 -18 -36 -36 -35 -41 2 -4
-8 -3 -21 2 -13 5 -27 6 -32 2 -4 -4 -4 -2 -1 4 4 6 -5 22 -19 35 -13 12 -22
29 -19 37 3 8 0 10 -6 6 -7 -4 -10 -1 -7 7 3 8 -1 26 -9 42 -9 18 -10 27 -2
27 6 0 9 5 7 12 -3 7 7 23 21 36 14 14 19 19 10 13 -13 -9 -18 -8 -23 4 -3 9
-2 14 2 11 4 -2 18 2 32 9 23 12 28 11 52 -12 15 -15 25 -29 23 -32z"/>
<path d="M731 1238 c-16 -25 -16 -33 -2 -33 5 0 12 -3 15 -7 3 -5 3 -6 0 -3
-9 6 -47 -15 -39 -23 12 -13 53 -12 64 2 14 17 4 47 -14 40 -9 -4 -11 2 -8 20
6 32 2 33 -16 4z"/>
<path d="M435 922 c-14 -14 -1 -22 35 -22 l40 0 0 -228 c0 -209 -2 -230 -18
-245 -27 -25 -34 -21 -27 16 11 58 -35 87 -75 47 -26 -26 -25 -52 3 -77 51
-48 120 -38 182 27 l30 31 2 197 c1 108 3 205 3 215 0 16 8 17 63 15 l62 -3 0
-210 c0 -207 0 -210 -21 -207 -12 1 -27 -4 -34 -13 -11 -13 -1 -15 94 -15 58
0 109 0 114 0 4 0 7 6 7 12 0 7 -11 13 -25 13 l-25 0 -2 112 c-1 76 3 115 10
120 28 17 49 9 65 -24 9 -18 20 -33 25 -33 5 0 7 -7 3 -15 -3 -10 1 -15 13
-15 12 0 18 -7 17 -17 0 -10 5 -17 12 -15 8 1 11 -2 7 -8 -3 -5 1 -10 9 -10
14 0 42 -37 38 -50 -1 -3 3 -5 10 -5 6 0 13 -7 15 -15 4 -13 3 -13 -6 0 -7 10
-11 11 -11 3 0 -7 -7 -13 -15 -13 -8 0 -15 -6 -15 -12 0 -7 -7 -3 -15 9 -17
24 -10 57 11 49 8 -3 11 0 7 10 -5 13 -8 13 -23 -1 -16 -15 -18 -14 -24 10 -6
25 -26 35 -26 13 0 -6 -3 -9 -6 -6 -3 4 -1 16 6 27 8 17 8 21 -2 19 -7 -2 -16
-7 -21 -13 -4 -5 -5 2 -3 18 3 15 0 27 -5 27 -5 0 -9 -5 -9 -10 0 -7 -5 -6
-13 2 -8 6 -13 24 -12 38 1 16 -4 27 -11 27 -33 0 -18 -35 51 -122 41 -52 75
-97 75 -100 0 -4 -8 -4 -17 -1 -18 5 -52 -9 -43 -17 3 -3 57 -6 120 -8 103 -4
115 -2 118 14 3 12 -3 17 -22 17 -29 0 -71 42 -177 177 l-68 87 71 78 c61 68
74 78 104 78 24 0 34 5 34 15 0 13 -14 15 -82 13 -54 -2 -83 -7 -86 -15 -2 -9
7 -13 28 -13 l31 0 -77 -87 c-42 -49 -81 -92 -85 -98 -5 -5 -9 34 -9 88 l0 97
31 0 c19 0 29 4 27 12 -3 8 -68 12 -231 13 -125 1 -229 0 -232 -3z m394 -81
c-1 -47 -6 -68 -13 -65 -7 3 -12 -6 -13 -18 0 -13 1 -17 4 -10 11 28 23 -3 23
-60 0 -56 -1 -59 -17 -47 -17 13 -17 13 0 -7 13 -16 17 -39 17 -98 0 -71 -1
-76 -16 -61 -9 9 -19 13 -22 10 -4 -3 0 -10 8 -15 11 -7 5 -10 -20 -10 l-35 0
0 225 0 225 43 0 43 0 -2 -69z m-229 38 c0 -5 -6 -6 -12 -4 -10 4 -12 -31 -11
-157 3 -178 -1 -228 -20 -228 -15 0 -18 391 -4 401 12 8 47 -1 47 -12z m-3
-166 c-2 -21 -4 -6 -4 32 0 39 2 55 4 38 2 -18 2 -50 0 -70z"/>
<path d="M370 190 c0 -7 144 -10 411 -10 271 0 408 3 404 10 -8 14 -815 14
-815 0z"/>
</g>
</svg>
